<svg width="138" height="125" viewBox="0 0 138 125" fill="none" xmlns="http://www.w3.org/2000/svg">
<path d="M34.4469 28V10.32H33.8069L22.0469 39.04L10.2869 10.32H9.64688V28V56H3.48688V0.159999H12.1269L21.9669 24.8H22.4469L32.2869 0.159999H40.6069V56H34.4469V28ZM59.1356 0.159999V33.68C59.1356 36.4 59.2156 38.8267 59.3756 40.96C59.5356 43.0933 59.9623 44.9333 60.6556 46.48C61.349 47.9733 62.4156 49.12 63.8556 49.92C65.349 50.72 67.4023 51.12 70.0156 51.12C72.629 51.12 74.6556 50.72 76.0956 49.92C77.589 49.12 78.6823 47.9733 79.3756 46.48C80.069 44.9333 80.4956 43.0933 80.6556 40.96C80.8156 38.8267 80.8956 36.4 80.8956 33.68V0.159999H87.6156V32.08C87.6156 36.24 87.4023 39.8667 86.9756 42.96C86.6023 46.0533 85.7756 48.64 84.4956 50.72C83.269 52.8 81.4823 54.3733 79.1356 55.44C76.8423 56.4533 73.8023 56.96 70.0156 56.96C66.229 56.96 63.1623 56.4533 60.8156 55.44C58.5223 54.3733 56.7356 52.8 55.4556 50.72C54.229 48.64 53.4023 46.0533 52.9756 42.96C52.6023 39.8667 52.4156 36.24 52.4156 32.08V0.159999H59.1356ZM103.584 56V0.159999H110.304V50.16H136.784V56H103.584ZM25.4069 75V125H18.6869V75H0.046875V69.16H44.0469V75H25.4069ZM53.2156 125V69.16H87.6156V75H59.9356V93.8H86.6556V99.64H59.9356V119.16H87.6156V125H53.2156ZM107.904 125H101.184V69.16H121.504C126.678 69.16 130.624 70.5733 133.344 73.4C136.064 76.2267 137.424 80.1733 137.424 85.24C137.424 89.7733 136.251 93.4 133.904 96.12C131.558 98.84 128.144 100.413 123.664 100.84L137.904 125H130.384L116.784 101.16H107.904V125ZM121.344 95.48C124.171 95.48 126.358 94.7867 127.904 93.4C129.504 91.96 130.304 89.9333 130.304 87.32V83.16C130.304 80.5467 129.504 78.5467 127.904 77.16C126.358 75.72 124.171 75 121.344 75H107.904V95.48H121.344Z" fill="black"/>
</svg>
